<?xml version="1.0" standalone="no"?><!DOCTYPE svg PUBLIC "-//W3C//DTD SVG 1.1//EN" "http://www.w3.org/Graphics/SVG/1.1/DTD/svg11.dtd"><svg t="1513150657626" class="icon" style="" viewBox="0 0 1024 1024" version="1.1" xmlns="http://www.w3.org/2000/svg" p-id="1004" xmlns:xlink="http://www.w3.org/1999/xlink" width="200" height="200"><defs><style type="text/css"></style></defs><path d="M1007.347297 870.405047 736.29349 1020.746698c-4.144554 2.194175-8.776702 3.315643-13.441356 3.25063-4.989718 0.032506-9.898169-1.202733-14.28652-3.575693l-377.073114-203.001862L44.559364 990.190773c-9.345562 5.05473-20.641502 4.859692-29.792027-0.471341C5.633066 984.290879 0.025729 974.473976 0.025729 963.860668L0.025729 482.117258c0.048759-10.044448 5.087236-19.422516 13.40885-25.029853l120.468359-90.204991c13.831432-9.215537 32.506303-5.493565 41.738093 8.337867 9.215537 13.831432 5.493565 32.506303-8.337867 41.72184l-107.059509 81.428289 0 414.780425 256.637262-156.339064c8.92298-4.859692 19.682566-4.924705 28.670559-0.178785L723.290969 959.976164l240.43287-135.22622L963.723839 357.780649l-73.643029 59.161471c-13.815179 9.215537-32.506303 5.493565-41.72184-8.337867s-5.493565-32.506303 8.337867-41.72184l0 0 120.452106-90.367522c13.880191-9.215537 32.587569-5.428553 41.786852 8.435386 3.266883 4.924705 5.022224 10.694574 5.038477 16.594468l0 541.88007C1023.941765 854.834528 1017.505517 865.252798 1007.347297 870.405047zM531.113706 655.05079c-11.084649 9.101765-27.061497 9.101765-38.1624 0-10.304498-8.289107-252.200151-178.622135-252.200151-383.899438C240.816168 121.329802 362.340981-0.064987 512.162532 2.6e-05c149.724031 0.065013 271.086313 121.427295 271.167579 271.151326-0.032506 205.277303-241.92816 375.61033-252.248911 383.899438L531.113706 655.05079zM512 60.185446C395.529917 60.315471 301.131613 154.681269 300.952828 271.151352c0 146.440895 155.818963 270.614972 211.014666 320.674678 55.260715-50.059707 211.063425-174.558847 211.063425-320.674678C722.88464 154.681269 628.470083 60.315471 512 60.185446zM512 365.744694c-40.389081 0-73.139182-32.7501-73.139182-73.139182s32.7501-73.139182 73.139182-73.139182S585.139182 252.216431 585.139182 292.605512 552.389081 365.744694 512 365.744694L512 365.744694z" p-id="1005" fill="#ffffff"></path></svg>